<svg version="1.2" xmlns="http://www.w3.org/2000/svg" viewBox="0 0 340 52" width="100%" height="auto">
	<title>Finding Friends</title>
	<defs>
		<linearGradient id="g1" x2="1" gradientUnits="userSpaceOnUse" gradientTransform="matrix(0,40,-326,0,170,10)">
			<stop offset="0" stop-color="#fff0a2"/>
			<stop offset="1" stop-color="#bbe5ff"/>
		</linearGradient>
	</defs>
	<style>
		.s0 { fill: url(#g1);paint-order:stroke fill markers;stroke: #000000;stroke-width: 6;stroke-linejoin: round; } 
	</style>
	<path id="Finding Friends" class="s0" aria-label="Finding Friends"  d="m30 15.2c0-1.7-1-3.4-3-3.4h-15.4c-2.9 0-4.4 1.4-4.4 4.3v24.6c0 3.7 7 3.7 7 0v-9.3h11.2c2 0 3-1.7 3-3.4 0-1.7-1-3.4-3-3.4h-11.2v-6.1h12.8c2 0 3-1.7 3-3.3zm10-1c0-2.1-1.8-3.8-3.9-3.8-2.1 0-3.9 1.7-3.9 3.8 0 2 1.8 3.6 3.9 3.6 2.1 0 3.9-1.6 3.9-3.6zm-0.5 26.7v-19.4c0-3-6.7-3-6.7 0v19.4c0 3.4 6.7 3.4 6.7 0zm26.9-0.1v-11.9c0-7.3-3.4-10.5-9.9-10.5-2.1 0-4.8 1.1-5.7 3 0-1.8-1.5-2.7-3-2.7-1.6 0-3.2 0.9-3.2 2.7v19.3c0 1.8 1.8 2.8 3.4 2.8 1.7 0 3.3-0.9 3.3-2.7v-10.2c0-3.6 1.8-5.7 4.9-5.7 2.3 0 3.6 1.6 3.6 4.1v11.8c0 1.8 1.6 2.7 3.3 2.7 1.7 0 3.3-0.9 3.3-2.7zm27.1 0.6v-27.6c0-3.4-6.6-3.4-6.6 0v6.3c-1.1-1.3-3.3-1.7-5.3-1.7-6.6 0-11.5 4.7-11.5 12.7 0 8 4.9 12.6 11.5 12.6 2.1 0 4.8-0.8 5.6-2.3 0 1.4 1.6 2.1 3.2 2.1 1.5 0 3.1-0.7 3.1-2.1zm-6.4-10.3c0 3.9-2.2 6.1-4.8 6.1-3.3 0-5.5-2.1-5.5-6.1 0-4 2.2-6.2 5.5-6.2 2.7 0 4.8 2.3 4.8 6.2zm18.8-16.9c0-2.1-1.9-3.8-3.9-3.8-2.1 0-4 1.7-4 3.8 0 2 1.9 3.6 4 3.6 2 0 3.9-1.6 3.9-3.6zm-0.5 26.7v-19.4c0-3-6.8-3-6.8 0v19.4c0 3.4 6.8 3.4 6.8 0zm26.8-0.1v-11.9c0-7.3-3.4-10.5-9.8-10.5-2.1 0-4.8 1.1-5.8 3 0-1.8-1.5-2.7-3-2.7-1.6 0-3.1 0.9-3.1 2.7v19.3c0 1.8 1.7 2.8 3.4 2.8 1.6 0 3.2-0.9 3.2-2.7v-10.2c0-3.6 1.8-5.7 5-5.7 2.3 0 3.5 1.6 3.5 4.1v11.8c0 1.8 1.7 2.7 3.3 2.7 1.7 0 3.3-0.9 3.3-2.7zm27.2-0.9v-19c0-1.5-1.5-2.3-3-2.3-1.5 0-3 0.8-3 2.5-1.2-1.9-4.1-2.7-6.4-2.7-6 0-11.1 3.7-11.1 11.4 0 8 4.8 11.4 11.1 11.4 2.5 0 5-0.6 6.4-1.8 0 2.9-1.3 4.4-5.5 4.4-2.3 0-4.8-0.8-6-1.5-0.8-0.6-1.6-0.8-2.3-0.8-1.7 0-2.8 1.5-2.8 3.1 0 1.1 0.6 2.3 1.9 3 2.2 1.3 5.4 2.1 9.2 2.1 7.8 0 11.5-3 11.5-9.8zm-6.6-9.7c0 3.7-2.2 5.5-5 5.5-2.8 0-5.1-1.8-5.1-5.4 0-3.6 2.4-5.5 5.1-5.5 2.9 0 5 1.9 5 5.4zm47.7-15c0-1.7-1-3.4-3.1-3.4h-15.4c-2.9 0-4.3 1.4-4.3 4.3v24.6c0 3.7 6.9 3.7 6.9 0v-9.3h11.2c2 0 3-1.7 3-3.4 0-1.7-1-3.4-3-3.4h-11.2v-6.1h12.9c2 0 3-1.7 3-3.3zm17.9 6.3c0-1.5-0.8-3.1-2.6-3.1-2.6 0-5 0.8-6.3 2.4 0-1.4-1.5-2.2-3.1-2.2-1.6 0-3.3 0.8-3.3 2.6v19.5c0 1.8 1.7 2.8 3.4 2.8 1.6 0 3.2-0.9 3.2-2.7v-10.4c0-3.6 2.8-5.7 6.2-5.7 1.6 0 2.5-1.6 2.5-3.2zm9.6-7.3c0-2.1-1.8-3.8-3.9-3.8-2.1 0-4 1.7-4 3.8 0 2 1.9 3.6 4 3.6 2.1 0 3.9-1.6 3.9-3.6zm-0.5 26.7v-19.4c0-3-6.7-3-6.7 0v19.4c0 3.4 6.7 3.4 6.7 0zm27.7-11.1c0-0.1 0-0.2 0-0.3-0.3-6.5-5.4-11.1-11.7-11.1-6.9 0-12 4.8-12 12.8 0 7.1 4.7 12.5 11.9 12.5 6 0 9.4-2.1 10.7-5.2 0.1-0.3 0.2-0.6 0.2-0.9 0-1.8-2-3-3.7-3-0.9 0-1.6 0.3-2 1-0.5 1-2.4 2-5.1 2-2.5 0-5.1-2-5.2-4.1h12.8c2.8 0 4.1-1.3 4.1-3.7zm-6.7-1.9h-10.1c0.5-1.9 2.2-3.5 5.1-3.5 2.7 0 4.5 1.6 5 3.5zm32.3 12.9v-11.9c0-7.3-3.4-10.5-9.9-10.5-2.1 0-4.8 1.1-5.7 3 0-1.8-1.6-2.7-3.1-2.7-1.5 0-3.1 0.9-3.1 2.7v19.3c0 1.8 1.7 2.8 3.4 2.8 1.6 0 3.2-0.9 3.2-2.7v-10.2c0-3.6 1.8-5.7 5-5.7 2.3 0 3.5 1.6 3.5 4.1v11.8c0 1.8 1.7 2.7 3.3 2.7 1.7 0 3.4-0.9 3.4-2.7zm27.1 0.6v-27.6c0-3.4-6.7-3.4-6.7 0v6.3c-1.1-1.3-3.3-1.7-5.2-1.7-6.7 0-11.6 4.7-11.6 12.7 0 8 4.9 12.6 11.6 12.6 2.1 0 4.7-0.8 5.6-2.3 0 1.4 1.6 2.1 3.1 2.1 1.6 0 3.2-0.7 3.2-2.1zm-6.5-10.3c0 3.9-2.1 6.1-4.8 6.1-3.3 0-5.4-2.1-5.4-6.1 0-4 2.1-6.2 5.4-6.2 2.7 0 4.8 2.3 4.8 6.2zm30.9 5c0-4.1-2.3-6.6-5.9-7.6-2-0.6-5.3-1.1-7.1-1.7-0.5-0.2-0.9-0.7-0.9-1.1 0-0.1 0-0.1 0-0.1 0.1-0.9 0.8-1.7 3.4-1.7 2.2 0 3.5 0.7 4.5 2.1 0.5 0.8 1.3 1.1 2.1 1.1 1.6 0 3.2-1.4 3.2-2.9 0-0.3-0.1-0.6-0.2-0.9-1.8-3.3-4.5-4.9-9.6-4.9-5.6 0-9.8 3.1-9.8 7.2 0 3.7 1.8 5.9 5.2 6.9 2.4 0.7 5 1 7.2 1.7 1 0.4 1.5 0.9 1.5 1.8 0 0.1 0 0.2 0 0.2 0 1.4-1.2 1.8-3.9 1.8-2 0-4-0.9-4.8-2.6-0.5-1-1.4-1.4-2.2-1.4-1.6 0-3.3 1.3-3.3 2.9 0 0.3 0.1 0.6 0.3 1 1.6 3.8 5 5.8 10 5.8 7 0 10.3-2.9 10.3-7.6z"/>
</svg>